#define delete_width 16
#define delete_height 16
static char delete_bits[] = {
  0x00, 0x00, 0xE0, 0x03, 0xFE, 0x3F, 0xFE, 0x3F, 0x00, 0x00, 0xFC, 0x1F, 
  0xFC, 0x1F, 0xFC, 0x1F, 0xFC, 0x1F, 0xFC, 0x1F, 0xFC, 0x1F, 0xFC, 0x1F, 
  0xFC, 0x1F, 0xFC, 0x1F, 0xFC, 0x1F, 0x00, 0x00, };
